<svg version="1.1" xmlns="http://www.w3.org/2000/svg" xmlns:xlink="http://www.w3.org/1999/xlink" width="284" height="312.03927" viewBox="0,0,284,312.03927"><g transform="translate(-98,-38.5)"><g stroke-miterlimit="10"><path d="M98,300.5c0,-30.54236 0,-178.88202 0,-240c0,-17.2261 7.12096,-22 22,-22c59.03775,0 210.72961,0 241,0c10.45126,0 20.03509,7.51485 20.09212,20.00415c0.24743,54.18356 0.90788,204.99483 0.90788,238.99585c0,13.58737 -7.71153,24 -22,24c-58.61242,0 -215.06826,0 -245,0c-9.98734,0 -17,-9.63339 -17,-21z" fill-opacity="0.84314" fill="#6e49b8" stroke="none" stroke-width="0"/><text transform="translate(125.98145,59.76875) scale(0.5,0.5)" font-size="40" xml:space="preserve" fill-opacity="0.84314" fill="#000000" stroke="none" stroke-width="1" font-family="&quot;Ubuntu&quot;, Malgun Gothic" font-weight="normal" text-anchor="start"><tspan x="0" dy="0">Welcome To kernel17</tspan></text><text transform="translate(155.98633,305.76875) scale(0.5,0.5)" font-size="40" xml:space="preserve" fill-opacity="0.84314" fill="#000000" stroke="none" stroke-width="1" font-family="&quot;Andale Mono&quot;, Serif" font-weight="normal" text-anchor="start"><tspan x="0" dy="0">Click To Begin</tspan></text><text transform="translate(99.5,92.34644) scale(0.46667,0.46667)" font-size="40" xml:space="preserve" fill-opacity="0.84314" fill="#000000" stroke="none" stroke-width="1" font-family="&quot;Ubuntu&quot;, Malgun Gothic" font-weight="normal" text-anchor="start"><tspan x="0" dy="0">  a new, advanced kernel</tspan><tspan x="0" dy="46.150000000000006px">that powers the scratches</tspan><tspan x="0" dy="46.150000000000006px">operating system. you are</tspan><tspan x="0" dy="46.150000000000006px">about to install. if you</tspan><tspan x="0" dy="46.150000000000006px">decide not to, press Q at</tspan><tspan x="0" dy="46.150000000000006px">anytime during the first</tspan><tspan x="0" dy="46.150000000000006px">    half of the setup.</tspan></text><text transform="translate(101.97754,259.56948) scale(0.5,0.5)" font-size="40" xml:space="preserve" fill-opacity="0.84314" fill="#000000" stroke="none" stroke-width="1" font-family="&quot;Ubuntu&quot;, Malgun Gothic" font-weight="normal" text-anchor="start"><tspan x="0" dy="0">PRESS S FOR QUICK SETUP</tspan></text><path d="M98.98631,350.53927v-26.4973h44.8831v26.4973z" fill-opacity="0.84314" fill="#000000" stroke="#000000" stroke-width="0"/><path d="M146.12606,350.53927v-26.4973h44.8831v26.4973z" fill-opacity="0.84314" fill="#6e4ab8" stroke="#000000" stroke-width="0"/><path d="M193.75164,350.53927v-26.4973h44.8831v26.4973z" fill-opacity="0.84314" fill="#6e4ab8" stroke="#000000" stroke-width="0"/><path d="M241.37722,350.53927v-26.4973h44.8831v26.4973z" fill-opacity="0.84314" fill="#6e4ab8" stroke="#000000" stroke-width="0"/><path d="M289.00279,350.53927v-26.4973h44.8831v26.4973z" fill-opacity="0.84314" fill="#6e4ab8" stroke="#000000" stroke-width="0"/><path d="M336.62837,350.53927v-26.4973h44.8831v26.4973z" fill-opacity="0.84314" fill="#6e4ab8" stroke="#000000" stroke-width="0"/></g></g></svg>