<svg version="1.1" xmlns="http://www.w3.org/2000/svg" xmlns:xlink="http://www.w3.org/1999/xlink" width="284" height="313.31164" viewBox="0,0,284,313.31164"><g transform="translate(-98,-37.22765)"><g stroke-miterlimit="10"><path d="M98,300.50002c0,-30.54236 0,-178.88202 0,-240c0,-17.2261 7.12096,-22 22,-22c59.03775,0 210.72961,0 241,0c10.45126,0 20.03509,7.51485 20.09212,20.00415c0.24743,54.18356 0.90788,204.99483 0.90788,238.99585c0,13.58737 -7.71153,24 -22,24c-58.61242,0 -215.06826,0 -245,0c-9.98734,0 -17,-9.63339 -17,-21z" fill-opacity="0.84314" fill="#6e49b8" stroke="none" stroke-width="0"/><path d="M107.01585,166.75751c0,-11.27549 0,-59.44317 0,-77.49319c0,-4.27989 2.19,-6.86648 6.16808,-6.86648c37.24524,0 231.23119,0 252.0981,0c3.57797,0 6.19839,2.3907 6.19839,5.88555c0,17.524 0,70.70296 0,80.43597c0,2.95682 -1.91459,5.88556 -4.23654,5.88556c-17.19994,0 -217.44113,0 -254.38693,0c-3.77129,0 -5.8411,-3.12479 -5.8411,-7.84741z" fill-opacity="0.84314" fill="#6e49b8" stroke="#000000" stroke-width="0"/><text transform="translate(145.13404,60.83016) scale(0.6294,0.6294)" font-size="40" xml:space="preserve" fill-opacity="0.84314" fill="#000000" stroke="none" stroke-width="1" font-family="&quot;Ubuntu&quot;, Malgun Gothic" font-weight="normal" text-anchor="start"><tspan x="0" dy="0">os.Name T&amp;C</tspan></text><text transform="translate(120.34602,188.25478) scale(0.36092,0.36092)" font-size="40" xml:space="preserve" fill-opacity="0.84314" fill="#000000" stroke="none" stroke-width="1" font-family="&quot;Ubuntu&quot;, Malgun Gothic" font-weight="normal" text-anchor="start"><tspan x="0" dy="0">Click To Continue With Setup</tspan></text><text transform="translate(109.53747,93.31081) scale(0.26204,0.26204)" font-size="40" xml:space="preserve" fill-opacity="0.84314" fill="#000000" stroke="none" stroke-width="1" font-family="&quot;Ubuntu&quot;, Malgun Gothic" font-weight="normal" text-anchor="start"><tspan x="0" dy="0">body text</tspan></text><text transform="translate(136.27859,197.1529) scale(0.25938,0.25938)" font-size="40" xml:space="preserve" fill-opacity="0.84314" fill="#000000" stroke="none" stroke-width="1" font-family="&quot;Ubuntu&quot;, Malgun Gothic" font-weight="normal" text-anchor="start"><tspan x="0" dy="0">Information Valid as of DD/MM/YYYY</tspan></text><path d="M98.50048,350.5393v-26.4973h44.8831v26.4973z" fill-opacity="0.84314" fill="#6e4ab8" stroke="#000000" stroke-width="0"/><path d="M146.12606,350.5393v-26.4973h44.8831v26.4973z" fill-opacity="0.84314" fill="#6e4ab8" stroke="#000000" stroke-width="0"/><path d="M193.75164,350.5393v-26.4973h44.8831v26.4973z" fill-opacity="0.84314" fill="#6e4ab8" stroke="#000000" stroke-width="0"/><path d="M241.37722,350.5393v-26.4973h44.8831v26.4973z" fill-opacity="0.84314" fill="#6e4ab8" stroke="#000000" stroke-width="0"/><path d="M289.00279,350.5393v-26.4973h44.8831v26.4973z" fill-opacity="0.84314" fill="#000000" stroke="#000000" stroke-width="0"/><path d="M336.62837,350.5393v-26.4973h44.8831v26.4973z" fill-opacity="0.84314" fill="#6e4ab8" stroke="#000000" stroke-width="0"/></g></g></svg>